<svg id="Layer_1" data-name="Layer 1" xmlns="http://www.w3.org/2000/svg" viewBox="0 0 1122.24 1122.24"><defs><style>.cls-1{fill:#fefefe;}.cls-2{fill:#ff4718;}.cls-3{fill:#a7a7a7;}.cls-4{fill:#fffffe;}.cls-5{fill:#fff;}.cls-6{fill:#fffefd;}.cls-7{fill:#f75;}.cls-8{fill:#ffd8cd;}.cls-9{fill:#ff8060;}</style></defs><title>datahost</title><path class="cls-1" d="M400-20H1522.2V1102.2H400Q400,541.08,400-20Z" transform="translate(-399.96 20.04)"/><path class="cls-2" d="M633.88,600.29a4.14,4.14,0,0,1-3.19.68q-71,0-142.06,0a57.6,57.6,0,0,1-10.47-114.31,73.13,73.13,0,0,1,12.9-.83c1.6,0,2-.38,1.84-2.05a103.23,103.23,0,0,1-.11-13.41A85.65,85.65,0,0,1,660.35,452.1c0.44,1.5.26,3.48,1.62,4.39s3.08-.26,4.57-0.59a73.46,73.46,0,0,1,88.36,58.64,68.58,68.58,0,0,1-.65,28.58c-0.21.91-.17,2.06-1.38,2.25a3.65,3.65,0,0,1-3.71-2.3c-0.26-.92-0.43-1.87-0.63-2.81-4.08-19.62-20.72-33.45-38.33-35.35-19.59-2.11-34.56,5.43-45.08,22a10.7,10.7,0,0,0-.92,1.68,3,3,0,0,1-3,1.88,50.36,50.36,0,0,0-10.43,1.42,40.42,40.42,0,0,0-29.27,33.35c-1.51,12.16,1.81,22.75,9.67,32C632,598.23,632.86,599.16,633.88,600.29Z" transform="translate(-399.96 20.04)"/><path class="cls-2" d="M792.64,527.11q0-32.37,0-64.73c0-1.28,0-2.56,0-3.84,0.07-2.42.27-2.67,2.83-2.67q17.26,0,34.52.07a162.09,162.09,0,0,1,20.09,1.11A41.87,41.87,0,0,1,863,460.51c8.1,3.89,12.76,10.34,14.22,19.18a64.4,64.4,0,0,1,.84,9.54c0.38,26.05.32,52.1,0.06,78.16a78.38,78.38,0,0,1-.93,11c-1.3,8.55-6,14.22-14.1,17.15-5,1.82-10.32,2-15.56,2.46-2.38.2-4.79,0.14-7.19,0.14q-21.34,0-42.68,0c-1.12,0-2.24,0-3.35-.05a1.45,1.45,0,0,1-1.56-1.44c-0.07-1.43-.08-2.87-0.08-4.31Q792.64,559.72,792.64,527.11Z" transform="translate(-399.96 20.04)"/><path class="cls-3" d="M1225.75,526.88q0,32.87,0,65.74c0,5.78.32,5.54-5.43,5.54H1194.4c-1.12,0-2.24,0-3.36-.05-1.41-.09-1.88-0.61-2-2.16-0.06-1.28,0-2.56,0-3.84q0-24,0-48c0-5.82.34-5.6-5.37-5.58-6.37,0-6-.53-6,6q0,23.27,0,46.55c0,1.12,0,2.24,0,3.36-0.08,3.64-.12,3.73-3.83,3.74-9.6,0-19.19,0-28.79,0-0.8,0-1.6,0-2.39-.09a1.57,1.57,0,0,1-1.56-1.51c-0.1-1.11-.11-2.23-0.11-3.35q0-66.22,0-132.45c0-4.8-.08-4.79,4.73-4.79q13.68,0,27.35,0c0.8,0,1.6,0,2.4,0,1.56,0.11,2.05.54,2.15,2,0.08,1.27.06,2.56,0.06,3.84q0,19.67,0,39.35c0,5.64,0,5.65,5.48,5.65,6.45,0,5.84.45,5.85-6q0-19.67,0-39.35c0-1.28,0-2.56.11-3.83a1.57,1.57,0,0,1,1.52-1.55,21.69,21.69,0,0,1,2.39-.1h28.79c0.48,0,1,0,1.44,0,1.85,0.13,2.31.52,2.4,2.26,0.08,1.44,0,2.88.05,4.32Q1225.75,494.73,1225.75,526.88Z" transform="translate(-399.96 20.04)"/><path class="cls-3" d="M1325.33,527.49c0,7-.13,14.08,0,21.11a148.13,148.13,0,0,1-1.11,20.57c-1.44,12.47-8,21.66-19.4,27.25a49,49,0,0,1-18,4.51,58.11,58.11,0,0,1-19-1.74,37,37,0,0,1-16.42-8.55A32.6,32.6,0,0,1,1241,571.15a93.22,93.22,0,0,1-1.07-13.84c0.09-21.59,0-43.19.13-64.78a49.11,49.11,0,0,1,2.21-15.1A32.54,32.54,0,0,1,1257,459.16a41.14,41.14,0,0,1,20.47-6c3.52-.08,7-0.18,10.55,0,8.62,0.55,16.65,2.89,23.55,8.36,8,6.32,12.06,14.63,12.94,24.7C1325.67,500,1325.26,513.75,1325.33,527.49Z" transform="translate(-399.96 20.04)"/><path class="cls-2" d="M1134.14,597.55a3.84,3.84,0,0,1-2.78.57h-31.17c-0.64,0-1.28,0-1.92-.05a1.5,1.5,0,0,1-1.53-1.49c-0.25-2.22-.51-4.45-0.68-6.67-0.4-5.1-.74-10.2-1.14-15.3-0.15-1.88-.45-2.17-2.39-2.21-2.88-.05-5.75-0.05-8.63,0-2,0-2.23.21-2.47,2.09-0.28,2.22-.52,4.44-0.71,6.67-0.41,4.78-.76,9.56-1.16,14.33-0.2,2.39-.4,2.61-3,2.62-8.63,0-17.26,0-25.9,0-2.56,0-5.12,0-7.67,0-1.32,0-1.74-.51-1.71-1.72a12.87,12.87,0,0,1,.1-1.43q1.55-11.64,3.1-23.27l3.49-26.12q2.19-16.38,4.38-32.77,1.62-12.11,3.22-24.22,2-15.2,4-30.4c0.24-1.84.61-2.17,2.4-2.27,1-.05,1.92,0,2.88,0h43.64c1.12,0,2.24,0,3.35.06a1.61,1.61,0,0,1,1.62,1.44c0.17,0.78.39,1.55,0.51,2.34q2.55,17.3,5.09,34.6t5.17,34.59q2.63,17.53,5.27,35.06,2.24,14.92,4.46,29.85A9.37,9.37,0,0,1,1134.14,597.55Z" transform="translate(-399.96 20.04)"/><path class="cls-2" d="M929.32,455.85c7.84,0,15.68,0,23.52,0,3.21,0,3.37.16,3.79,3,2.34,15.81,4.63,31.63,7,47.44,2.41,16.12,4.9,32.24,7.33,48.36q2.9,19.2,5.74,38.41c0.09,0.63.16,1.27,0.22,1.91,0.27,2.88.12,3.09-2.62,3.13-3,0-6.08,0-9.12,0-7.36,0-14.72,0-22.08,0-3.45,0-3.46,0-3.75-3.31q-0.81-9.32-1.59-18.64c-0.05-.64-0.1-1.28-0.14-1.91a1.67,1.67,0,0,0-1.74-1.83c-2.4,0-4.8,0-7.2,0-4.32,0-4.31,0-4.59,3-0.23,2.39-.49,4.77-0.7,7.16-0.41,4.62-.78,9.24-1.17,13.86a1.7,1.7,0,0,1-1.85,1.74l-1.44,0H887.24c-0.64,0-1.28,0-1.92-.07a1.28,1.28,0,0,1-1.31-1.59c0.31-2.7.67-5.39,1-8.09q2.3-17.35,4.62-34.7c1.45-10.77,2.95-21.54,4.38-32.31s2.8-21.56,4.21-32.34q2-15.22,4-30.43c0.32-2.38.68-2.71,3.05-2.72,8,0,16,0,24,0h0Z" transform="translate(-399.96 20.04)"/><path class="cls-3" d="M1354.2,547.17h12c1,0,1.92,0,2.88,0,1.88,0.11,2.29.48,2.4,2.24,0.07,1.12,0,2.24,0,3.36q0,7,0,13.91a21.22,21.22,0,0,0,.74,5.68c0.65,2.39,2,4,4.45,4.49a6.38,6.38,0,0,0,6.72-2.72,7.28,7.28,0,0,0,1.35-3c0.45-3.13,1.4-6.23.48-9.48-0.42-1.5-.18-3.18-0.35-4.77a14.28,14.28,0,0,0-5.75-10.58c-5.12-3.83-10.38-7.45-15.66-11-4.36-3-8.67-6-13-9-7.78-5.45-11.92-13.12-13.55-22.31a71.8,71.8,0,0,1-.94-14.31,69.83,69.83,0,0,1,2-14.68c1.7-7.07,6-12.27,12.2-15.87a43.88,43.88,0,0,1,21.47-5.89c3.68-.07,7.36-0.12,11,0.06A47.83,47.83,0,0,1,1407,461c5.6,3.67,8.32,9.14,9.41,15.51a100.07,100.07,0,0,1,1.12,20.06c-0.07,2.1-.47,2.56-2.56,2.57q-14.39.06-28.78,0c-2.53,0-3-.58-3.08-3.19-0.07-3.52,0-7-.07-10.55a15,15,0,0,0-.6-4.73,5.43,5.43,0,0,0-8.49-2.54,6.88,6.88,0,0,0-2.42,3.48c-1.63,5.25-1,10.43.45,15.57a10,10,0,0,0,3,4.28,47.34,47.34,0,0,0,9.38,6.61,189,189,0,0,1,19.49,13.08,71.86,71.86,0,0,1,9.07,8.53,23.78,23.78,0,0,1,4.72,8.81,56.2,56.2,0,0,1,2.77,15.5c0.16,4.31,0,8.63.09,13a49.42,49.42,0,0,1-1.75,12.29,22,22,0,0,1-9,13.1c-6.13,4.38-13,6.67-20.33,7.92a58.78,58.78,0,0,1-12.89.74c-8.22-.42-16.14-2.14-23.38-6.26-5.54-3.16-10.12-7.28-12.52-13.39a37.47,37.47,0,0,1-2.57-10.67c-0.48-6-1.36-12.07-1-18.16,0.05-.8,0-1.6,0-2.4,0.1-2.47.41-2.8,2.75-2.91,1,0,1.92,0,2.88,0h11.51Z" transform="translate(-399.96 20.04)"/><path class="cls-3" d="M700.52,601c-13.27,0-26.54-.13-39.8,0-12.85.16-26.64-9.91-29.19-24.45-1.77-10.1.51-19.46,7.86-27a31.54,31.54,0,0,1,28.55-8.52,1.67,1.67,0,0,0,2.2-1.28,37.9,37.9,0,0,1,4.78-9.88c7.07-9.82,16.39-15.26,28.73-15.45A34,34,0,0,1,724,520.31a34.51,34.51,0,0,1,14.81,21.57,30.13,30.13,0,0,1,.95,8.06c-0.14,2.71.23,3.08,3.25,3.41a23.85,23.85,0,0,1,12,4.38c6.25,4.68,9.94,10.62,9.92,18.67,0,4.23-.35,8.32-2.55,12-4.66,7.8-11.31,12.52-20.64,12.59C728,601.11,714.27,601,700.52,601Z" transform="translate(-399.96 20.04)"/><path class="cls-2" d="M1026.1,541.21q0,25.44,0,50.88c0,1.28,0,2.56,0,3.84-0.08,1.79-.43,2.16-2.36,2.17q-16.08,0-32.16,0c-1.93,0-2.2-.32-2.27-2.24-0.05-1.28,0-2.56,0-3.84q0-51.12,0-102.24c0-5.75.6-5.54-5.36-5.53-4.64,0-9.28,0-13.92,0-2.35,0-2.63-.27-2.63-2.37q0-11.76,0-23.52c0-2.18.29-2.4,2.54-2.47,1.12,0,2.24,0,3.36,0q34.56,0,69.12,0c6.56,0,5.71-.74,5.75,6,0,5.92,0,11.84,0,17.76,0,1.12,0,2.24-.11,3.35a1.22,1.22,0,0,1-1.25,1.18q-1.91.1-3.83,0.11c-4.8,0-9.6,0-14.4,0-2,0-2.3.4-2.38,2.21-0.06,1.28,0,2.56,0,3.84Q1026.09,515.77,1026.1,541.21Z" transform="translate(-399.96 20.04)"/><path class="cls-3" d="M1484.78,541.29q0,25.43,0,50.87c0,1.44,0,2.88-.08,4.32a1.56,1.56,0,0,1-1.49,1.57,23.44,23.44,0,0,1-2.39.11H1452c-0.64,0-1.28,0-1.92-.05-1.37-.12-1.89-0.67-2-2.18s0-2.88-.05-4.32q0-50.39,0-100.78c0-1.44,0-2.88-.07-4.32-0.11-1.62-.77-2.31-2.45-2.33-4.48-.08-9,0-13.44-0.06-6.47,0-6,.49-6-5.89q0-8.88,0-17.76c0-1,0-1.92.12-2.87a1.58,1.58,0,0,1,1.55-1.52c1-.09,1.91-0.11,2.87-0.11h71.5c0.64,0,1.28,0,1.92,0,2.39,0.12,2.72.38,2.74,2.9q0.07,11,0,22.08c0,2.76-.35,3.1-3,3.13-4.32.06-8.64,0-13,0-1.12,0-2.24,0-3.36,0-2.32.1-2.62,0.43-2.71,2.92,0,1.12,0,2.24,0,3.36Q1484.78,515.85,1484.78,541.29Z" transform="translate(-399.96 20.04)"/><path class="cls-2" d="M720.33,424.79c-1.92,0-3.83,0-5.75,0A3.54,3.54,0,0,1,711.1,422c-0.33-1.07-.62-2.15-1-3.2q-18.15-52.63-71.3-69.21c-4.91-1.53-6.38-.55-6.18-8.18,0.06-2.4-.07-4.8,0-7.19,0.16-3.93,1.77-5.19,5.52-4.33a108.85,108.85,0,0,1,23,7.92c34.6,16.63,57.53,43.25,68.29,80.2a16,16,0,0,1,.69,3.26,3,3,0,0,1-2.71,3.35c-2.38.19-4.78,0-7.17,0v0.11Z" transform="translate(-399.96 20.04)"/><path class="cls-3" d="M683.83,429.28c-1.76,0-3.52-.06-5.27,0a4.08,4.08,0,0,1-4.4-2.94,54.23,54.23,0,0,0-4.74-9.38A75.62,75.62,0,0,0,644,391.4a70.73,70.73,0,0,0-12.92-6.21,3.74,3.74,0,0,1-2.73-4c0-3.83-.06-7.67,0-11.5,0.07-3.16,1.44-4.28,4.58-3.88a13.81,13.81,0,0,1,2.75.75,94.16,94.16,0,0,1,55.48,50.93,60.65,60.65,0,0,1,2.55,6.69c0.93,3-.49,4.89-3.74,5-2.07.09-4.15,0-6.23,0h0Z" transform="translate(-399.96 20.04)"/><path class="cls-4" d="M829.76,526.63q0-20.86,0-41.72a37.18,37.18,0,0,1,.17-3.82,1,1,0,0,1,.95-0.9,12.2,12.2,0,0,1,7,1.18,5.27,5.27,0,0,1,2.81,4.23,74.44,74.44,0,0,1,.66,7.63c0.09,8.79.06,17.58,0.07,26.38,0,11.35,0,22.7,0,34.05a102,102,0,0,1-.76,12.43c-0.62,5.17-2,6.64-7.1,7.42a20,20,0,0,1-2.38.27,1.16,1.16,0,0,1-1.28-1.12c-0.1-1.27-.13-2.55-0.13-3.83Q829.76,547.73,829.76,526.63Z" transform="translate(-399.96 20.04)"/><path class="cls-5" d="M1288,526.74q0,20.14,0,40.29a23.38,23.38,0,0,1-.86,6.62c-0.59,2-3.24,3.51-5.28,3.32a4.61,4.61,0,0,1-4.31-3.85,55.09,55.09,0,0,1-.92-8.56q-0.11-37.41,0-74.82a44.73,44.73,0,0,1,1-8.55c0.9-4.52,4.75-4.64,7.85-3.55a2.88,2.88,0,0,1,1.53,1.76,15.18,15.18,0,0,1,1.08,6.09c0,8,.06,16,0.08,24,0,5.76,0,11.51,0,17.27H1288Z" transform="translate(-399.96 20.04)"/><path class="cls-6" d="M1089.09,496.63c0.52,6.69,1,13.38,1.58,20.06,0.92,10,2,20,3,30.16-3.8.7-7.46,0.37-11.09,0.28a1.37,1.37,0,0,1-1.24-1.7c0.18-2.87.3-5.75,0.63-8.6q1.69-14.75,3.52-29.49c0.57-4.59,1.31-9.17,2-13.75a0.76,0.76,0,0,1,1.09,0C1088.93,494.54,1088.55,495.67,1089.09,496.63Z" transform="translate(-399.96 20.04)"/><path class="cls-7" d="M1089.09,496.63c-0.73-.88-0.59-2-0.9-3-0.75-.78,0-2-0.76-2.75a2.47,2.47,0,0,1,.29-1.27c0.88-.55,1.15.39,1.25,0.87A15.58,15.58,0,0,1,1089.09,496.63Z" transform="translate(-399.96 20.04)"/><path class="cls-8" d="M1087.43,490.85c1,0.7.89,1.72,0.76,2.75h-0.76v-2.74Z" transform="translate(-399.96 20.04)"/><path class="cls-6" d="M931.63,493.75c0.58,7.15,1.11,14.31,1.76,21.46,0.7,7.78,1.49,15.56,2.26,23.34,0.22,2.22.54,4.43,0.77,6.65,0.13,1.32-.3,2-1.41,2-3.19,0-6.38,0-9.57,0a1.34,1.34,0,0,1-1.36-1.59c0-1.59.09-3.19,0.26-4.78,1.58-14.43,3.19-28.85,5.28-43.21,0.23-1.58.29-3.18,0.44-4.76C931.22,492,931.3,493.1,931.63,493.75Z" transform="translate(-399.96 20.04)"/><path class="cls-9" d="M931.63,493.75l-1.59-.92a5,5,0,0,1-.17-0.93c0-.92-0.17-1.92.75-2.56,0.6-.42,1.2.75,1.23,2.54A13.6,13.6,0,0,1,931.63,493.75Z" transform="translate(-399.96 20.04)"/></svg>